<svg xmlns="http://www.w3.org/2000/svg" version="1.1" xmlns:xlink="http://www.w3.org/1999/xlink" width="512" height="512" x="0" y="0" viewBox="0 0 512 512" style="enable-background:new 0 0 512 512" xml:space="preserve" class=""><g><linearGradient id="a" x1="255.999" x2="256" y1="492.806" y2="19.242" gradientUnits="userSpaceOnUse"><stop stop-opacity="1" stop-color="#97e0ff" offset="0"></stop><stop stop-opacity="1" stop-color="#1075ff" offset="1"></stop></linearGradient><path fill="url(#a)" fill-rule="evenodd" d="M176.452 194.2c0-.072.007-.072.007-.072a17.7 17.7 0 1 0-35.39 0 17.331 17.331 0 0 0 .714 4.93l-18.924 13.782a17.74 17.74 0 0 0-27.611 14.645 17.7 17.7 0 1 0 35.391 0 17.287 17.287 0 0 0-.722-4.929l18.931-13.788a17.56 17.56 0 0 0 23.5-3.357l14.537 5.358v.071a17.7 17.7 0 0 0 35.391 0 17.327 17.327 0 0 0-.721-4.929l18.931-13.788a18.053 18.053 0 0 0 9.908 3 17.682 17.682 0 1 0-17.688-17.717 17.459 17.459 0 0 0 .714 5L214.5 196.2a17.606 17.606 0 0 0-23.481 3.286zm59 10.358h29.9a5.969 5.969 0 0 1 6 6v109.011h9.773a6 6 0 0 1 0 12H82.232a6 6 0 0 1 0-12h9.759v-59.008a6.023 6.023 0 0 1 6-6h29.9a6.014 6.014 0 0 1 6 6v59.008h3.922V227.2a6.024 6.024 0 0 1 6-6h29.9a6.014 6.014 0 0 1 6 6v92.37h3.922v-75.654a5.973 5.973 0 0 1 6-6h29.9a5.968 5.968 0 0 1 6 6v75.653h3.922V210.554a5.974 5.974 0 0 1 6-6zm44.185-56.864c54.021 54.007 54.021 141.876 0 195.955-54.022 54.007-141.92 54.007-195.941 0-54.015-54.079-54.015-141.948 0-195.955s141.919-54.008 195.941 0zm46.585 234.96-12.38-12.364c-1.221 1.286-2.45 2.572-3.707 3.787a134.831 134.831 0 0 1-3.836 3.714l12.394 12.431 7.53-7.573zm18.609-1.643L317.05 408.8l8.644 8.644 27.768-27.79-8.63-8.644zm60.137 60.151L377.2 468.947l-30.268-30.29 27.775-27.718 30.261 30.218zM181.674 427.3A181.661 181.661 0 0 1 53.207 117.184 181.7 181.7 0 0 1 288.81 98.9l.922-1.571 17.51-30.362a5.988 5.988 0 0 1 5.2-3h70.017V25.243a5.977 5.977 0 0 1 6-6H506a5.971 5.971 0 0 1 5.994 6v89.513a6.016 6.016 0 0 1-5.994 6H388.46a6.022 6.022 0 0 1-6-6V75.965H315.9L298.347 106.4c4.065 3.429 7.994 7 11.788 10.787a180.336 180.336 0 0 1 47.992 85.013h24.332v-38.795a6.023 6.023 0 0 1 6-6H506a6.017 6.017 0 0 1 5.994 6v89.512a5.971 5.971 0 0 1-5.994 6H388.46a5.977 5.977 0 0 1-6-6V214.2h-21.818a183.627 183.627 0 0 1 2.7 31.433 181.146 181.146 0 0 1-16.86 76.653l10.438 18.074h25.539v-38.793a6.023 6.023 0 0 1 6-6H506a6.017 6.017 0 0 1 5.994 6v89.583a6.017 6.017 0 0 1-5.994 6H388.46a6.023 6.023 0 0 1-6-6v-38.791h-29.012a6.033 6.033 0 0 1-5.2-3L339.953 335a182.442 182.442 0 0 1-18.145 26.289l12.9 12.859 5.872-5.858a5.977 5.977 0 0 1 8.487 0l70.5 70.51a31.63 31.63 0 1 1-44.742 44.72l-70.5-70.438a6.152 6.152 0 0 1-1.757-4.286 5.984 5.984 0 0 1 1.757-4.215l5.872-5.858-12.9-12.93A180.452 180.452 0 0 1 181.674 427.3zM482.237 85.9H412.22a6 6 0 0 0 0 12h70.017a6 6 0 1 0 0-12zm0-21.931H412.22a6 6 0 0 0 0 12h70.017a6 6 0 1 0 0-12zm6.008-15.931a6.02 6.02 0 0 0-6.008-6H412.22a6 6 0 0 0 0 12h70.017a6.02 6.02 0 0 0 6.008-6zm-6.008 176.1H412.22a6 6 0 0 0 0 12h70.017a6 6 0 1 0 0-12zm0-21.931H412.22a6 6 0 0 0 0 12h70.017a6 6 0 1 0 0-12zm0-22H412.22a6 6 0 0 0 0 12h70.017a6 6 0 1 0 0-12zm0 182.1H412.22a6 6 0 0 0 0 12h70.017a6 6 0 1 0 0-12zm0-21.931H412.22a6 6 0 1 0 0 12h70.017a6 6 0 1 0 0-12zm0-21.932H412.22a6 6 0 0 0 0 12h70.017a6 6 0 1 0 0-12z" opacity="1" data-original="url(#a)" class=""></path></g></svg>