<svg xmlns="http://www.w3.org/2000/svg" version="1.1" xmlns:xlink="http://www.w3.org/1999/xlink" width="512" height="512" x="0" y="0" viewBox="0 0 64 64" style="enable-background:new 0 0 512 512" xml:space="preserve" class=""><g><linearGradient id="a" x1="4" x2="60" y1="32" y2="32" gradientUnits="userSpaceOnUse"><stop stop-opacity="1" stop-color="#97e0ff" offset="0"></stop><stop stop-opacity="1" stop-color="#1075ff" offset="1"></stop></linearGradient><path fill="url(#a)" d="M27.23 36.712v7.203c.057.005 15.357-.004 15.426 0v-7.203c-.092.005-15.346-.003-15.425 0zm6.496 2.31h2.445a1.04 1.04 0 0 1 0 2.082h-2.445a1.04 1.04 0 0 1 0-2.081zM4 31.696h21.233v.791H4zm19.942-14.092H5.3A1.301 1.301 0 0 0 4 18.904v10.71h21.233v-10.71a1.3 1.3 0 0 0-1.291-1.301zM8.684 25.638a1.041 1.041 0 0 1-2.082 0V23.64a1.04 1.04 0 0 1 2.082 0zm18.547 27.55h15.425v-7.192H27.23zm6.495-4.808h2.445a1.04 1.04 0 0 1 0 2.081h-2.445a1.04 1.04 0 0 1 0-2.081zm11.011 4.808h13.385V36.712H44.737zm1.603-13.124a1.037 1.037 0 0 1 1.041-1.041h8.274a1.037 1.037 0 0 1 1.041 1.04v8.265a1.037 1.037 0 0 1-1.04 1.04H47.38a1.037 1.037 0 0 1-1.04-1.04zm8.15-5.433v-.802a1.042 1.042 0 0 1 .03-2.081h1.01a1.044 1.044 0 0 1 1.041 1.04v1.843zm-5.943-.802v.802h-2.082v-1.843a1.044 1.044 0 0 1 1.04-1.04h1a1.041 1.041 0 0 1 .042 2.081zm6.068 7.275h-6.193v6.183h6.193zm-1.822 3.008a1.044 1.044 0 0 1-.218 1.416c-.377.241-1.069.993-1.562.926a1.04 1.04 0 0 1-.634-1.852l.145-.115-.114-.177c-.59-.846.334-1.531.874-2.071a1.037 1.037 0 0 1 1.468 0 1.082 1.082 0 0 1-.136 1.613zM4 51.742a1.3 1.3 0 0 0 1.301 1.29h18.64a1.29 1.29 0 0 0 1.208-.853v-8.264h.084v-9.347H4zM6.602 37.68a1.041 1.041 0 0 1 2.082 0v2.384a1.04 1.04 0 0 1-2.082 0zm52.373-24.785H45.08v4.78a3.378 3.378 0 1 1-2.082-.082v-4.698h-6.11v2.429a3.38 3.38 0 1 1-2.081-.073v-2.356h-3.661a1.041 1.041 0 0 1 0-2.082c7.55-.006 20.166.008 27.828 0a1.04 1.04 0 0 1 0 2.082z" opacity="1" data-original="url(#a)" class=""></path></g></svg>