<svg xmlns="http://www.w3.org/2000/svg" version="1.1" xmlns:xlink="http://www.w3.org/1999/xlink" width="512" height="512" x="0" y="0" viewBox="0 0 512 512" style="enable-background:new 0 0 512 512" xml:space="preserve" class=""><g><linearGradient id="a" x1="67.89" x2="444.07" y1="259.435" y2="252.586" gradientUnits="userSpaceOnUse"><stop stop-opacity="1" stop-color="#97e0ff" offset="0"></stop><stop stop-opacity="1" stop-color="#1075ff" offset="1"></stop></linearGradient><path fill="url(#a)" fill-rule="evenodd" d="M180.388 256a8 8 0 0 1 8-8h132.1a8 8 0 1 1 0 16h-132.1a8 8 0 0 1-8-8zm-67.621 0a8.005 8.005 0 0 1 8-8h23.9a8 8 0 1 1 0 16h-23.9a8.006 8.006 0 0 1-8-8zm75.622 57.83H391.23a7.995 7.995 0 1 1 0 15.989H188.389a7.995 7.995 0 1 1 0-15.989zm-75.622 7.988a8 8 0 0 1 8-7.988h23.9a7.995 7.995 0 1 1 0 15.989h-23.9a8.006 8.006 0 0 1-8-8zm286.465 65.832a8.008 8.008 0 0 1-8 8.011H188.389a8 8 0 1 1 0-16H391.23a7.994 7.994 0 0 1 8 7.988zm-286.465 0a7.994 7.994 0 0 1 8-7.988h23.9a8 8 0 1 1 0 16h-23.9a8.008 8.008 0 0 1-8-8.011zm0 65.841a8.015 8.015 0 0 1 8-8.011h23.9a8 8 0 1 1 0 16h-23.9a7.994 7.994 0 0 1-8-7.988zm286.465 0a7.994 7.994 0 0 1-8 7.988H188.389a8 8 0 1 1 0-16H391.23a8.015 8.015 0 0 1 8 8.011zm-87.846-295.634H210.879L197.7 92.006h126.868zm-5.779 52.475a2.524 2.524 0 1 1 2.533-2.523 2.561 2.561 0 0 1-2.533 2.523zm-67.79 0a2.524 2.524 0 1 1 2.534-2.523 2.553 2.553 0 0 1-2.534 2.523zM144.481 62.345H172.5a1.994 1.994 0 0 1 2.039 1.646l25.334 119.446a17.947 17.947 0 0 0 17.687 14.328h4.723a18.357 18.357 0 0 0-2.982 10.044 18.525 18.525 0 1 0 34.067-10.044h36.7a18.488 18.488 0 0 0 15.536 28.57 18.495 18.495 0 0 0 15.073-29.264 8 8 0 0 0-3.25-15.309h-99.868a2 2 0 0 1-2.038-1.647l-1.321-6.256h104.188a7.994 7.994 0 0 0 7.841-6.43l16.389-81.849a8.006 8.006 0 0 0-7.85-9.572H193.442l-3.251-15.333A17.959 17.959 0 0 0 172.5 46.342h-28.019a8 8 0 1 0 0 16zm275.108 449.667a25.033 25.033 0 0 0 25-25V25a25.023 25.023 0 0 0-25-24.995H92.41a25.023 25.023 0 0 0-25 25v462.007a25.033 25.033 0 0 0 25 25z" opacity="1" data-original="url(#a)" class=""></path></g></svg>