<svg xmlns="http://www.w3.org/2000/svg" version="1.1" xmlns:xlink="http://www.w3.org/1999/xlink" width="512" height="512" x="0" y="0" viewBox="0 0 512 512" style="enable-background:new 0 0 512 512" xml:space="preserve" class=""><g><linearGradient id="a" x1="256" x2="256" y1="500.99" y2="11.01" gradientUnits="userSpaceOnUse"><stop stop-opacity="1" stop-color="#97e0ff" offset="0"></stop><stop stop-opacity="1" stop-color="#1075ff" offset="1"></stop></linearGradient><path fill="url(#a)" fill-rule="evenodd" d="M235.82 61.09c0-9.05 5.99-16.72 14.2-19.28v-2.2c0-3.3 2.68-5.97 5.98-5.97s5.97 2.67 5.97 5.97v2.2c4.43 1.37 8.3 4.24 10.91 8.23 1.81 2.76 1.04 6.47-1.72 8.27-2.76 1.81-6.47 1.04-8.27-1.72a8.21 8.21 0 0 0-6.89-3.73c-4.54 0-8.23 3.69-8.23 8.23s3.69 8.23 8.23 8.23c11.13 0 20.18 9.05 20.18 20.18 0 9.04-5.99 16.72-14.2 19.27l-.01 2.21c0 3.29-2.67 5.97-5.97 5.97-3.31-.01-5.98-2.68-5.98-5.98l.01-2.19c-4.43-1.37-8.3-4.24-10.92-8.23-1.8-2.76-1.03-6.47 1.73-8.28s6.46-1.03 8.27 1.73a8.225 8.225 0 0 0 6.89 3.72c4.54 0 8.23-3.69 8.23-8.22 0-4.54-3.69-8.23-8.23-8.23-11.13 0-20.18-9.05-20.18-20.18zM256 22.96c-28.86 0-52.33 23.48-52.33 52.33 0 28.86 23.47 52.34 52.33 52.34s52.33-23.48 52.33-52.34c0-28.85-23.47-52.33-52.33-52.33zm0 116.62c35.45 0 64.28-28.84 64.28-64.29 0-35.44-28.83-64.28-64.28-64.28s-64.28 28.84-64.28 64.28c0 35.45 28.83 64.29 64.28 64.29zM90.03 284.73c15.52 0 28.16-12.63 28.16-28.15 0-3.74-.75-7.3-2.08-10.57l65.25-44.55c5.04 4.78 11.84 7.73 19.32 7.73 9.86 0 18.55-5.11 23.58-12.82l59.25 22.48c-.2 1.36-.34 2.74-.34 4.15 0 15.53 12.63 28.16 28.15 28.16 15.53 0 28.16-12.63 28.16-28.16 0-4.23-.97-8.24-2.65-11.85l66.86-50.72c4.92 4.22 11.3 6.79 18.28 6.79 15.52 0 28.15-12.63 28.15-28.15 0-15.53-12.63-28.16-28.15-28.16-15.53 0-28.16 12.63-28.16 28.16 0 4.23.97 8.24 2.65 11.84l-66.86 50.72c-4.92-4.21-11.3-6.78-18.28-6.78-9.87 0-18.55 5.11-23.58 12.82l-59.25-22.48c.2-1.36.34-2.74.34-4.15 0-15.53-12.63-28.16-28.15-28.16-15.53 0-28.16 12.63-28.16 28.16 0 3.73.75 7.3 2.08 10.56l-65.25 44.55c-5.05-4.77-11.84-7.73-19.32-7.73-15.52 0-28.15 12.63-28.15 28.16 0 15.52 12.63 28.15 28.15 28.15zm410.96 210.28c0-3.3-2.68-5.97-5.98-5.97H22.96V75.29c0-3.3-2.67-5.97-5.97-5.97s-5.98 2.67-5.98 5.97v419.72c0 3.3 2.68 5.98 5.98 5.98h478.02c3.3 0 5.98-2.68 5.98-5.98zM285.8 270.82h51.04c8.79 0 15.94 7.15 15.94 15.93v160.74c0 8.78-7.15 15.93-15.94 15.93H285.8c-8.78 0-15.93-7.15-15.93-15.93V286.75c0-8.78 7.15-15.93 15.93-15.93zm110.65-72.31h51.04c8.78 0 15.93 7.15 15.93 15.94v233.04c0 8.78-7.15 15.93-15.93 15.93h-51.04c-8.79 0-15.94-7.15-15.94-15.93V214.45c0-8.79 7.15-15.94 15.94-15.94zm-221.29 41.97h51.04c8.78 0 15.93 7.15 15.93 15.94v191.07c0 8.78-7.15 15.93-15.93 15.93h-51.04c-8.79 0-15.94-7.15-15.94-15.93V256.42c0-8.79 7.15-15.94 15.94-15.94zM64.51 463.42c-8.79 0-15.93-7.15-15.93-15.93V320.33c0-8.79 7.14-15.94 15.93-15.94h51.04c8.79 0 15.94 7.15 15.94 15.94v127.16c0 8.78-7.15 15.93-15.94 15.93z" clip-rule="evenodd" opacity="1" data-original="url(#a)"></path></g></svg>