<svg xmlns="http://www.w3.org/2000/svg" version="1.1" xmlns:xlink="http://www.w3.org/1999/xlink" width="512" height="512" x="0" y="0" viewBox="0 0 64 64" style="enable-background:new 0 0 512 512" xml:space="preserve"><g><linearGradient id="a" x1="12.69" x2="51.31" y1="32" y2="32" gradientUnits="userSpaceOnUse"><stop stop-opacity="1" stop-color="#97e0ff" offset="0.013513513513513514"></stop><stop stop-opacity="1" stop-color="#1075ff" offset="1"></stop></linearGradient><path fill="url(#a)" d="M23.68 11.49c-.002-.141-.015-2.674.02-2.74A2.995 2.995 0 0 1 26.68 6h1.73a4.222 4.222 0 0 1 7.18 0h1.73a3.018 3.018 0 0 1 3 3v2.49a2.006 2.006 0 0 1-2 2H25.68a2.006 2.006 0 0 1-2-2zm27.63.09v45.59A2.836 2.836 0 0 1 48.47 60H15.53a2.836 2.836 0 0 1-2.84-2.83V11.58a2.836 2.836 0 0 1 2.84-2.83h6.16c-.018-.041-.009 2.69-.01 2.74a3.999 3.999 0 0 0 4 4h12.64a3.999 3.999 0 0 0 4-4V9a2.449 2.449 0 0 0-.01-.25h6.16a2.836 2.836 0 0 1 2.84 2.83zM19 50.5a1.5 1.5 0 0 0 0 3 1.5 1.5 0 0 0 0-3zm0-8a1.5 1.5 0 0 0 0 3 1.5 1.5 0 0 0 0-3zm0-8a1.5 1.5 0 0 0 0 3 1.5 1.5 0 0 0 0-3zm0-8a1.5 1.5 0 0 0 0 3 1.5 1.5 0 0 0 0-3zm0-8a1.5 1.5 0 0 0 0 3 1.5 1.5 0 0 0 0-3zM45 51H23a1 1 0 0 0 0 2h22a1 1 0 0 0 0-2zm0-8H23a1 1 0 0 0 0 2h22a1 1 0 0 0 0-2zm0-8H23a1 1 0 0 0 0 2h22a1 1 0 0 0 0-2zm0-8H23a1 1 0 0 0 0 2h22a1 1 0 0 0 0-2zm0-8H23a1 1 0 0 0 0 2h22a1 1 0 0 0 0-2z" opacity="1" data-original="url(#a)"></path></g></svg>