<svg xmlns="http://www.w3.org/2000/svg" version="1.1" xmlns:xlink="http://www.w3.org/1999/xlink" width="512" height="512" x="0" y="0" viewBox="0 0 512 512" style="enable-background:new 0 0 512 512" xml:space="preserve" class=""><g><linearGradient id="a" x1="256" x2="256" y1="500.749" y2="11.251" gradientUnits="userSpaceOnUse"><stop stop-opacity="1" stop-color="#97e0ff" offset="0"></stop><stop stop-opacity="1" stop-color="#1075ff" offset="1"></stop></linearGradient><path fill="url(#a)" fill-rule="evenodd" d="M501 53.182v.797H288.721v-.797c0-15.912-6.537-30.971-18.048-41.931h188.396c11.523 0 22.004 4.72 29.608 12.323 7.604 7.604 12.324 18.085 12.324 29.607zM108.405 436.886c-8.541-8.541-13.843-20.329-13.843-33.303v-7.086c0-17.116-14.033-31.145-31.148-31.145s-31.146 14.03-31.146 31.145v104.252h233.298v-50.02H141.709c-12.973 0-24.762-5.302-33.303-13.843zm11.312-11.312c5.649 5.649 13.434 9.155 21.991 9.155s16.343-3.507 21.992-9.155c5.649-5.649 9.187-13.434 9.187-21.991v-38.231H98.746c7.344 8.317 11.816 19.231 11.816 31.145v7.086c0 8.557 3.507 16.342 9.156 21.99zM280.721 69.979h141.433v333.604c0 8.557-3.507 16.342-9.155 21.991-5.648 5.648-13.433 9.155-21.991 9.155H177.04a46.915 46.915 0 0 0 11.785-31.146V261.138c32.018-22.293 52.978-59.364 52.978-101.335s-20.959-79.042-52.977-101.335v-5.286c0-23.028 18.94-41.931 41.963-41.931s41.932 18.885 41.932 41.931v8.797a8 8 0 0 0 8 8zm-1.674 274.192a7.98 7.98 0 0 0-11.312 0l-21.15 21.147-5.123-8.881a7.996 7.996 0 0 0-10.929-2.927 7.998 7.998 0 0 0-2.928 10.925l10.337 17.902a8.023 8.023 0 0 0 5.884 3.944c.351.039.697.058 1.045.058a7.981 7.981 0 0 0 5.656-2.343l28.52-28.518c3.124-3.12 3.124-8.192 0-11.306zm0-56.155a8.006 8.006 0 0 0-11.312 0l-21.15 21.151-5.123-8.881a8 8 0 0 0-10.929-2.917c-3.825 2.199-5.136 7.097-2.928 10.921l10.337 17.907a8.016 8.016 0 0 0 5.884 3.929c.351.053.697.072 1.045.072a7.997 7.997 0 0 0 5.656-2.338l28.52-28.533c3.124-3.12 3.124-8.177 0-11.311zm14.832-148.523a8 8 0 0 0 8 8h90.366a8 8 0 0 0 0-16h-90.366a8 8 0 0 0-8 8zm0 56.146a8 8 0 0 0 8 8h90.366a8 8 0 0 0 0-16h-90.366a8 8 0 0 0-8 8zm0 56.147a8 8 0 0 0 8 8h90.366a8 8 0 0 0 0-16h-90.366a8 8 0 0 0-8 8zm0 56.146a8 8 0 0 0 8 8h90.366a8 8 0 0 0 0-16h-90.366a8 8 0 0 0-8 8zm0 56.147a8 8 0 0 0 8 8h90.366a8 8 0 0 0 0-16h-90.366a8 8 0 0 0-8 8zm-14.832-132.213a8.007 8.007 0 0 0-11.312 0l-21.15 21.151-5.123-8.871a7.996 7.996 0 0 0-10.929-2.927c-3.825 2.208-5.136 7.097-2.928 10.93l10.337 17.897a7.965 7.965 0 0 0 5.884 3.929c.351.053.697.072 1.045.072a7.994 7.994 0 0 0 5.656-2.339l28.52-28.523a8.01 8.01 0 0 0 0-11.321zM11 159.803c0-59.155 48.247-107.402 107.402-107.402s107.402 48.247 107.402 107.402-48.247 107.402-107.402 107.402S11 218.958 11 159.803zm42.365 61.793a16.372 16.372 0 0 0 12.317 5.559h105.442c4.725 0 9.215-2.025 12.315-5.559a16.383 16.383 0 0 0 3.903-12.941l-11.986-90.628c-1.098-8.322-8.255-14.59-16.647-14.59h-9.972v-4.498c0-16.73-13.609-30.341-30.335-30.341S88.067 82.209 88.067 98.939v4.498h-9.971c-8.39 0-15.549 6.268-16.649 14.59l-11.986 90.628a16.38 16.38 0 0 0 3.904 12.941zM132.737 98.94c0-7.912-6.432-14.344-14.336-14.344s-14.334 6.432-14.334 14.344v4.498h28.67zM65.682 211.158h105.442c.096 0 .198-.01.283-.111.087-.101.089-.198.075-.299l-11.987-90.618c-.054-.424-.364-.69-.785-.69h-9.972v7.276a8 8 0 1 1-15.999 0v-7.276h-28.67v7.276a8.001 8.001 0 1 1-16.001 0v-7.276h-9.971c-.422 0-.731.265-.787.69l-11.986 90.618c-.011.101-.011.198.073.299.087.101.188.111.286.111z" opacity="1" data-original="url(#a)" class=""></path></g></svg>